<?xml version="1.0" encoding="UTF-8"?><svg xmlns="http://www.w3.org/2000/svg" xmlns:xlink="http://www.w3.org/1999/xlink" viewBox="0 0 449.83 449.81"><defs><style>.cls-1{fill:url(#linear-gradient);}.cls-1,.cls-2,.cls-3,.cls-4,.cls-5,.cls-6{fill-rule:evenodd;}.cls-1,.cls-2,.cls-6{mix-blend-mode:soft-light;}.cls-7{fill:none;isolation:isolate;}.cls-2{fill:#000e11;}.cls-3{fill:#4680af;}.cls-4{fill:#098ab7;}.cls-5{fill:#fff;}.cls-6{fill:url(#linear-gradient-2);}</style><linearGradient id="linear-gradient" x1="241.75" y1="449.81" x2="241.75" y2="45.6" gradientUnits="userSpaceOnUse"><stop offset="0" stop-color="#fff"/><stop offset="1" stop-color="#000"/></linearGradient><linearGradient id="linear-gradient-2" x1="208.08" y1="0" x2="208.08" y2="404.21" xlink:href="#linear-gradient"/></defs><g class="cls-7"><g id="Layer_1"><path class="cls-4" d="m33.68,343.32c39.66,63.95,110.53,106.5,191.24,106.5,122.98,0,225.71-101.69,224.91-225.06C448.94,88.7,301.48.42,181.22,69.87c-26.86,15.49-48.69,37.32-64.07,62.99,26.02-30.4,64.64-49.69,107.77-49.69,78.29,0,141.78,63.45,141.74,141.74-.04,66.99-35.63,128.82-93.81,162.41-81.29,46.96-181.4,26.33-239.17-44h0Z"/><path class="cls-4" d="m332.68,316.95c-25.98,30.44-64.64,49.69-107.77,49.69-79.17,0-142.62-64.6-141.7-143.7,1.65-143.43,158.65-234.17,284.02-158.61,18.95,11.41,35.4,25.71,48.92,42.16C376.5,42.54,305.63,0,224.92,0,99.97,0-1.14,101.92,0,226.87c1.27,135.17,149,222.14,268.61,153.11,26.86-15.53,48.69-37.36,64.07-63.03h0Z"/><path class="cls-1" d="m33.68,343.32c39.66,63.95,110.53,106.5,191.24,106.5,122.98,0,225.71-101.69,224.91-225.06C448.94,88.7,301.48.42,181.22,69.87c-26.86,15.49-48.69,37.32-64.07,62.99,26.02-30.4,64.64-49.69,107.77-49.69,78.29,0,141.78,63.45,141.74,141.74-.04,66.99-35.63,128.82-93.81,162.41-81.29,46.96-181.4,26.33-239.17-44h0Z"/><path class="cls-5" d="m105.87,224.91c0,65.76,53.28,119.08,119.05,119.08s119.08-53.32,119.08-119.08-53.32-119.04-119.08-119.04-118.21,52.45-119.05,117.51v1.53h0Z"/><path class="cls-3" d="m224.92,163.61c-33.85,0-61.3,27.46-61.3,61.3s27.46,61.3,61.3,61.3c48.62,0,77.34-53.71,51.85-94.05-22.23,14.08-51.85-1.76-51.85-28.55h0Z"/><path class="cls-2" d="m224.92,163.61c-33.85,0-61.3,27.46-61.3,61.3s27.46,61.3,61.3,61.3c48.62,0,77.34-53.71,51.85-94.05-22.23,14.08-51.85-1.76-51.85-28.55h0Z"/><path class="cls-6" d="m332.68,316.95c-25.98,30.44-64.64,49.69-107.77,49.69-79.17,0-142.62-64.6-141.7-143.7,1.65-143.43,158.65-234.17,284.02-158.61,18.95,11.41,35.4,25.71,48.92,42.16C376.5,42.54,305.63,0,224.92,0,99.97,0-1.14,101.92,0,226.87c1.27,135.17,149,222.14,268.61,153.11,26.86-15.53,48.69-37.36,64.07-63.03h0Z"/></g></g></svg>